<?xml version="1.0" encoding="utf-8"?>
<!-- Generator: Adobe Illustrator 27.3.0, SVG Export Plug-In . SVG Version: 6.00 Build 0)  -->
<svg version="1.1" id="Layer_1" xmlns="http://www.w3.org/2000/svg" xmlns:xlink="http://www.w3.org/1999/xlink" x="0px" y="0px"
	 viewBox="0 0 32 32" style="enable-background:new 0 0 32 32;" xml:space="preserve">
<style type="text/css">
	.st0{fill:#FFFFFF;}
</style>
<g>
	<path class="st0" d="M8.4,26.8c-1.2,0-2.4-0.1-3.5-0.3c-1.1-0.2-2.2-0.5-3.1-0.9l0.5-4.1c1.1,0.5,2.2,0.8,3.3,1.1
		c1.1,0.3,2.1,0.4,3,0.4c1.1,0,1.9-0.2,2.5-0.6c0.6-0.4,0.9-0.9,0.9-1.6c0-0.9-0.6-1.7-1.8-2.2L7.1,17c-1.5-0.7-2.7-1.7-3.5-2.8
		c-0.8-1.1-1.3-2.3-1.3-3.6c0-1.9,0.6-3.3,1.9-4.3c1.2-1,3-1.5,5.3-1.5c1.3,0,2.6,0.2,3.8,0.7c1.2,0.5,2.2,1.1,3.1,2l-2.7,3.2
		c-0.7-0.7-1.4-1.2-2.1-1.5c-0.7-0.4-1.4-0.5-2-0.5c-0.9,0-1.6,0.2-2.1,0.6C6.9,9.5,6.7,10,6.7,10.7c0,0.5,0.2,0.9,0.5,1.3
		c0.3,0.4,0.8,0.8,1.5,1.1l2.9,1.5c1.5,0.8,2.7,1.7,3.5,2.7c0.8,1,1.2,2.2,1.2,3.4c0,1.9-0.7,3.4-2.1,4.4
		C12.9,26.3,10.9,26.8,8.4,26.8z"/>
	<path class="st0" d="M18.8,17.3v-2.8h11.3v2.8H18.8z M21.7,20.6v-9.8h3.1v9.8H21.7z M27.6,26.7c-2.1,0-3.6-0.4-4.5-1.2
		c-0.9-0.8-1.4-2.2-1.4-4v-1.6h3.1v1.3c0,0.9,0.2,1.6,0.7,2s1.2,0.6,2.3,0.6c0.3,0,0.7,0,1.1-0.1c0.4,0,0.8-0.1,1.4-0.2l0.3,2.9
		c-0.5,0.1-1,0.2-1.5,0.2C28.6,26.7,28.1,26.7,27.6,26.7z"/>
</g>
</svg>
